<svg xmlns="http://www.w3.org/2000/svg" viewBox="0 0 600 700" width="600" height="700">
  <defs>
    <linearGradient id="goldGrad2" x1="0%" y1="0%" x2="100%" y2="100%">
      <stop offset="0%" stop-color="#D4AF37"/>
      <stop offset="50%" stop-color="#F5D77A"/>
      <stop offset="100%" stop-color="#B8860B"/>
    </linearGradient>
  </defs>

  <g transform="translate(300 260)">
    <polygon points="0,-200 173,-100 173,100 0,200 -173,100 -173,-100"
             fill="#1B2A4E" stroke="url(#goldGrad2)" stroke-width="6"/>
    <polygon points="0,-160 138,-80 138,80 0,160 -138,80 -138,-80"
             fill="none" stroke="url(#goldGrad2)" stroke-width="1.5" opacity="0.5"/>

    <g>
      <line x1="-110" y1="90" x2="110" y2="90" stroke="url(#goldGrad2)" stroke-width="3"/>

      <rect x="-95" y="20" width="34" height="70" fill="url(#goldGrad2)" opacity="0.85"/>
      <rect x="-90" y="30" width="6" height="10" fill="#0D1B36"/>
      <rect x="-78" y="30" width="6" height="10" fill="#0D1B36"/>
      <rect x="-90" y="50" width="6" height="10" fill="#0D1B36"/>
      <rect x="-78" y="50" width="6" height="10" fill="#0D1B36"/>
      <rect x="-90" y="70" width="6" height="10" fill="#0D1B36"/>
      <rect x="-78" y="70" width="6" height="10" fill="#0D1B36"/>

      <rect x="-55" y="-20" width="36" height="110" fill="url(#goldGrad2)"/>
      <rect x="-49" y="-10" width="6" height="10" fill="#0D1B36"/>
      <rect x="-37" y="-10" width="6" height="10" fill="#0D1B36"/>
      <rect x="-49" y="10" width="6" height="10" fill="#0D1B36"/>
      <rect x="-37" y="10" width="6" height="10" fill="#0D1B36"/>
      <rect x="-49" y="30" width="6" height="10" fill="#0D1B36"/>
      <rect x="-37" y="30" width="6" height="10" fill="#0D1B36"/>
      <rect x="-49" y="50" width="6" height="10" fill="#0D1B36"/>
      <rect x="-37" y="50" width="6" height="10" fill="#0D1B36"/>
      <rect x="-49" y="70" width="6" height="10" fill="#0D1B36"/>
      <rect x="-37" y="70" width="6" height="10" fill="#0D1B36"/>

      <polygon points="-12,-80 12,-80 18,-70 18,90 -18,90 -18,-70" fill="url(#goldGrad2)"/>
      <rect x="-12" y="-60" width="6" height="10" fill="#0D1B36"/>
      <rect x="0" y="-60" width="6" height="10" fill="#0D1B36"/>
      <rect x="-12" y="-40" width="6" height="10" fill="#0D1B36"/>
      <rect x="0" y="-40" width="6" height="10" fill="#0D1B36"/>
      <rect x="-12" y="-20" width="6" height="10" fill="#0D1B36"/>
      <rect x="0" y="-20" width="6" height="10" fill="#0D1B36"/>
      <rect x="-12" y="0" width="6" height="10" fill="#0D1B36"/>
      <rect x="0" y="0" width="6" height="10" fill="#0D1B36"/>
      <rect x="-12" y="20" width="6" height="10" fill="#0D1B36"/>
      <rect x="0" y="20" width="6" height="10" fill="#0D1B36"/>
      <rect x="-12" y="40" width="6" height="10" fill="#0D1B36"/>
      <rect x="0" y="40" width="6" height="10" fill="#0D1B36"/>
      <rect x="-12" y="60" width="6" height="10" fill="#0D1B36"/>
      <rect x="0" y="60" width="6" height="10" fill="#0D1B36"/>

      <rect x="19" y="-20" width="36" height="110" fill="url(#goldGrad2)"/>
      <rect x="25" y="-10" width="6" height="10" fill="#0D1B36"/>
      <rect x="37" y="-10" width="6" height="10" fill="#0D1B36"/>
      <rect x="25" y="10" width="6" height="10" fill="#0D1B36"/>
      <rect x="37" y="10" width="6" height="10" fill="#0D1B36"/>
      <rect x="25" y="30" width="6" height="10" fill="#0D1B36"/>
      <rect x="37" y="30" width="6" height="10" fill="#0D1B36"/>
      <rect x="25" y="50" width="6" height="10" fill="#0D1B36"/>
      <rect x="37" y="50" width="6" height="10" fill="#0D1B36"/>
      <rect x="25" y="70" width="6" height="10" fill="#0D1B36"/>
      <rect x="37" y="70" width="6" height="10" fill="#0D1B36"/>

      <rect x="61" y="20" width="34" height="70" fill="url(#goldGrad2)" opacity="0.85"/>
      <rect x="66" y="30" width="6" height="10" fill="#0D1B36"/>
      <rect x="78" y="30" width="6" height="10" fill="#0D1B36"/>
      <rect x="66" y="50" width="6" height="10" fill="#0D1B36"/>
      <rect x="78" y="50" width="6" height="10" fill="#0D1B36"/>
      <rect x="66" y="70" width="6" height="10" fill="#0D1B36"/>
      <rect x="78" y="70" width="6" height="10" fill="#0D1B36"/>

      <circle cx="-100" cy="-110" r="3" fill="url(#goldGrad2)"/>
      <circle cx="-60" cy="-130" r="3" fill="url(#goldGrad2)"/>
      <circle cx="-20" cy="-115" r="3" fill="url(#goldGrad2)"/>
      <circle cx="20" cy="-115" r="3" fill="url(#goldGrad2)"/>
      <circle cx="60" cy="-130" r="3" fill="url(#goldGrad2)"/>
      <circle cx="100" cy="-110" r="3" fill="url(#goldGrad2)"/>
    </g>
  </g>

  <g transform="translate(300 540)">
    <text x="0" y="0" text-anchor="middle"
          font-family="Georgia, 'Times New Roman', serif"
          font-size="64"
          font-weight="600"
          letter-spacing="12"
          fill="#F5F1E8">SAMONA</text>

    <line x1="-180" y1="30" x2="-20" y2="30" stroke="url(#goldGrad2)" stroke-width="1.5"/>
    <polygon points="0,22 8,30 0,38 -8,30" fill="url(#goldGrad2)"/>
    <line x1="20" y1="30" x2="180" y2="30" stroke="url(#goldGrad2)" stroke-width="1.5"/>

    <text x="0" y="68" text-anchor="middle"
          font-family="Georgia, 'Times New Roman', serif"
          font-size="20"
          font-weight="400"
          letter-spacing="14"
          fill="#D4AF37">I N D U S T R I E S</text>

    <text x="0" y="100" text-anchor="middle"
          font-family="Georgia, 'Times New Roman', serif"
          font-size="11"
          font-style="italic"
          letter-spacing="3"
          fill="#D4AF37"
          opacity="0.8">BUILT BY SIX  ·  BUILDING BEYOND</text>
  </g>
</svg>
